<svg width="24" height="24" viewBox="0 0 24 24" fill="none" xmlns="http://www.w3.org/2000/svg">
<path fill-rule="evenodd" clip-rule="evenodd" d="M13.9036 4.85668C12.7971 3.94825 11.2029 3.94825 10.0964 4.85668L4.73093 9.26166C4.2682 9.64155 4 10.2088 4 10.8074V18C4 19.1046 4.89543 20 6 20H18C19.1046 20 20 19.1046 20 18V10.8074C20 10.2088 19.7318 9.64155 19.2691 9.26166L13.9036 4.85668ZM8.82732 3.31089C10.6715 1.79685 13.3285 1.79685 15.1727 3.31089L20.5381 7.71587C21.4636 8.47565 22 9.61006 22 10.8074V18C22 20.2091 20.2091 22 18 22H6C3.79086 22 2 20.2091 2 18V10.8074C2 9.61006 2.53641 8.47565 3.46186 7.71587L8.82732 3.31089Z" fill="white"/>
<path fill-rule="evenodd" clip-rule="evenodd" d="M8 17C8 14.7909 9.79086 13 12 13C14.2091 13 16 14.7909 16 17V21H14V17C14 15.8954 13.1046 15 12 15C10.8954 15 10 15.8954 10 17V21H8V17Z" fill="white"/>
</svg>
