<svg width="24" height="24" viewBox="0 0 24 24" fill="none" xmlns="http://www.w3.org/2000/svg">
<path fill-rule="evenodd" clip-rule="evenodd" d="M2 7C2 4.23858 4.23858 2 7 2H17C19.7614 2 22 4.23858 22 7V17C22 19.7614 19.7614 22 17 22H7C4.23858 22 2 19.7614 2 17V7ZM7 4C5.34315 4 4 5.34315 4 7V17C4 18.6569 5.34315 20 7 20H17C18.6569 20 20 18.6569 20 17V7C20 5.34315 18.6569 4 17 4H7Z" fill="black"/>
<path fill-rule="evenodd" clip-rule="evenodd" d="M9 8C8.44772 8 8 8.44772 8 9C8 9.55228 8.44772 10 9 10C9.55228 10 10 9.55228 10 9C10 8.44772 9.55228 8 9 8ZM6 9C6 7.34315 7.34315 6 9 6C10.6569 6 12 7.34315 12 9C12 10.6569 10.6569 12 9 12C7.34315 12 6 10.6569 6 9Z" fill="black"/>
<path fill-rule="evenodd" clip-rule="evenodd" d="M15.9273 14.0745C15.497 13.7159 14.8561 13.7806 14.5062 14.218L12.907 16.217C11.9458 17.4185 10.2255 17.6856 8.94528 16.8321C8.52822 16.554 7.9678 16.641 7.65467 17.0324L4.78085 20.6247L3.21912 19.3753L6.09293 15.783C7.05413 14.5816 8.77444 14.3145 10.0547 15.168C10.4717 15.446 11.0322 15.359 11.3453 14.9676L12.9445 12.9686C13.9942 11.6565 15.9168 11.4623 17.2076 12.538L21.6402 16.2318L20.3598 17.7682L15.9273 14.0745Z" fill="black"/>
</svg>
