<svg width="24" height="24" viewBox="0 0 24 24" fill="none" xmlns="http://www.w3.org/2000/svg">
<path fill-rule="evenodd" clip-rule="evenodd" d="M12 4C7.58172 4 4 7.58172 4 12C4 13.6921 4.52425 15.2588 5.41916 16.5503C5.71533 16.9778 5.78673 17.5484 5.55213 18.0532L4.64729 20H12C16.4183 20 20 16.4183 20 12C20 7.58172 16.4183 4 12 4ZM2 12C2 6.47715 6.47715 2 12 2C17.5228 2 22 6.47715 22 12C22 17.5228 17.5228 22 12 22H3.86159C2.72736 22 2.00986 20.7933 2.53406 19.8016L3.62175 17.4613C2.59621 15.8909 2 14.0137 2 12Z" fill="white"/>
<path fill-rule="evenodd" clip-rule="evenodd" d="M8 14C8 13.4477 8.44772 13 9 13H15C15.5523 13 16 13.4477 16 14C16 14.5523 15.5523 15 15 15H9C8.44772 15 8 14.5523 8 14Z" fill="white"/>
<path fill-rule="evenodd" clip-rule="evenodd" d="M8 10C8 9.44772 8.44772 9 9 9H11C11.5523 9 12 9.44772 12 10C12 10.5523 11.5523 11 11 11H9C8.44772 11 8 10.5523 8 10Z" fill="white"/>
</svg>
