<?xml version="1.0" encoding="utf-8"?>
<!-- Generator: Adobe Illustrator 24.0.0, SVG Export Plug-In . SVG Version: 6.00 Build 0)  -->
<svg version="1.1" id="Layer_1" xmlns="http://www.w3.org/2000/svg" xmlns:xlink="http://www.w3.org/1999/xlink" x="0px" y="0px"
	 viewBox="0 0 24 24" style="enable-background:new 0 0 24 24;" xml:space="preserve">
<style type="text/css">
	.st0{fill-rule:evenodd;clip-rule:evenodd;fill:#FFFFFF;}
</style>
<path class="st0" d="M12,4c-4.4,0-8,3.6-8,8c0,1.7,0.5,3.3,1.4,4.6c0.3,0.4,0.4,1,0.1,1.5L4.6,20H12c4.4,0,8-3.6,8-8
	C20,7.6,16.4,4,12,4z M2,12C2,6.5,6.5,2,12,2c5.5,0,10,4.5,10,10c0,5.5-4.5,10-10,10H3.9c-1.1,0-1.9-1.2-1.3-2.2l1.1-2.3
	C2.6,15.9,2,14,2,12z"/>
<path class="st0" d="M8,14c0-0.6,0.4-1,1-1h6c0.6,0,1,0.4,1,1s-0.4,1-1,1H9C8.4,15,8,14.6,8,14z"/>
<path class="st0" d="M8,10c0-0.6,0.4-1,1-1h2c0.6,0,1,0.4,1,1c0,0.6-0.4,1-1,1H9C8.4,11,8,10.6,8,10z"/>
</svg>
