<svg width="24" height="24" viewBox="0 0 24 24" fill="none" xmlns="http://www.w3.org/2000/svg">
<path fill-rule="evenodd" clip-rule="evenodd" d="M12 4C10.3431 4 9 5.34315 9 7C9 8.65685 10.3431 10 12 10C13.6569 10 15 8.65685 15 7C15 5.34315 13.6569 4 12 4ZM7 7C7 4.23858 9.23858 2 12 2C14.7614 2 17 4.23858 17 7C17 9.76142 14.7614 12 12 12C9.23858 12 7 9.76142 7 7Z" fill="white"/>
<path fill-rule="evenodd" clip-rule="evenodd" d="M12 20C9.07115 20 7.33463 19.1139 6.33539 17.9708C6.03092 17.6225 5.95157 17.3163 5.96077 17.0651C5.97058 16.7971 6.08644 16.487 6.34723 16.1692C6.8829 15.5164 7.90133 15 9.00001 15H15C16.0987 15 17.1171 15.5164 17.6528 16.1692C17.9136 16.487 18.0294 16.7971 18.0392 17.0651C18.0485 17.3163 17.9691 17.6225 17.6646 17.9708C16.6654 19.1139 14.9289 20 12 20ZM4.82959 19.2871C6.30215 20.9716 8.65328 22 12 22C15.3467 22 17.6979 20.9716 19.1704 19.2871C19.7747 18.5958 20.0676 17.8036 20.0379 16.9919C20.0088 16.1971 19.6745 15.48 19.1989 14.9004C18.2618 13.7585 16.6628 13 15 13H9.00001C7.33726 13 5.73824 13.7585 4.80116 14.9004C4.32556 15.48 3.99122 16.1971 3.96211 16.9919C3.93238 17.8036 4.22537 18.5958 4.82959 19.2871Z" fill="white"/>
</svg>
